<?xml version="1.0" standalone="no"?>
<!DOCTYPE svg PUBLIC "-//W3C//DTD SVG 20010904//EN"
 "http://www.w3.org/TR/2001/REC-SVG-20010904/DTD/svg10.dtd">
<svg version="1.0" xmlns="http://www.w3.org/2000/svg"
 width="500.000000pt" height="500.000000pt" viewBox="0 0 500.000000 500.000000"
 preserveAspectRatio="xMidYMid meet">

<g transform="translate(0.000000,500.000000) scale(0.100000,-0.100000)"
fill="#000000" stroke="none">
<path d="M790 2820 l0 -1410 86 0 86 0 -7 758 c-5 724 -18 1294 -31 1450 -6
71 -6 72 17 72 l24 0 110 -1137 110 -1138 50 0 50 0 107 1120 c59 616 107
1128 107 1138 1 11 9 17 23 17 21 0 21 -1 14 -152 -10 -219 -25 -1241 -26
-1720 l0 -408 85 0 85 0 0 1410 0 1410 -123 0 -122 0 -28 -267 c-15 -148 -45
-446 -68 -663 -22 -217 -50 -510 -62 -650 -21 -240 -24 -255 -42 -255 -19 0
-22 17 -47 295 -28 293 -142 1416 -153 1498 l-6 42 -120 0 -119 0 0 -1410z"/>
<path d="M1928 3378 c-2 -469 -2 -1104 0 -1410 l2 -558 230 0 230 0 0 80 0 79
-142 3 -143 3 -3 592 c-1 370 2 601 8 617 9 26 11 26 114 26 l104 0 4 53 c1
28 2 64 0 79 l-3 27 -112 3 -112 3 0 545 0 545 143 3 142 3 0 79 0 80 -230 0
-230 0 -2 -852z"/>
<path d="M2610 3670 c0 -308 1 -561 2 -562 2 -2 -7 -19 -20 -39 -27 -45 -27
-49 -2 -49 20 0 20 -6 19 -165 -1 -147 -3 -164 -17 -156 -12 7 -19 3 -29 -16
-18 -34 -16 -43 7 -43 11 0 20 7 20 16 0 8 4 12 10 9 6 -3 9 -140 10 -350 0
-289 -2 -345 -14 -345 -8 0 -17 -7 -20 -16 -9 -24 -8 -27 14 -21 20 5 20 0 20
-259 l0 -264 158 0 c229 0 317 28 376 118 46 69 56 136 56 384 0 182 3 228 13
228 7 0 29 14 48 30 28 26 31 33 19 40 -25 16 -40 11 -40 -13 0 -23 -16 -47
-32 -47 -4 0 -8 111 -8 248 0 253 -4 290 -34 354 -18 38 -89 93 -133 104 -41
11 -26 64 18 64 5 0 9 -7 9 -15 0 -8 4 -15 9 -15 5 0 14 7 21 15 10 12 10 15
0 15 -7 0 10 24 37 53 75 79 75 85 71 592 -3 387 -5 435 -22 482 -51 142 -146
182 -433 183 l-133 0 0 -560z m354 377 c14 -10 34 -32 43 -50 16 -29 18 -70
18 -482 l0 -450 -23 -37 c-30 -48 -63 -60 -167 -62 l-50 -1 -3 108 c-2 87 0
107 12 107 22 0 27 27 5 33 -18 5 -19 19 -19 432 l0 428 79 -5 c51 -3 89 -11
105 -21z m-11 -1259 c24 -12 21 -27 -8 -34 -16 -4 -25 -13 -25 -25 0 -25 16
-24 30 1 15 28 44 25 61 -7 19 -39 25 -433 7 -445 -10 -6 -10 -8 0 -8 15 0 17
-66 2 -75 -8 -5 -8 -11 -1 -19 7 -8 10 -99 8 -257 -2 -265 -5 -283 -60 -323
-22 -16 -47 -22 -108 -25 l-79 -3 0 270 c0 224 3 276 16 308 15 35 15 39 0 50
-22 16 -22 66 0 57 14 -5 16 -1 12 20 -3 15 -1 27 3 27 15 0 10 27 -5 33 -9 4
-16 -1 -19 -11 -2 -9 -5 95 -6 231 l-1 249 77 -3 c43 -1 86 -6 96 -11z"/>
<path d="M2955 3170 c-11 -17 3 -28 30 -22 24 4 24 5 8 18 -22 16 -30 17 -38
4z"/>
<path d="M2830 3084 c0 -8 5 -12 10 -9 6 4 8 11 5 16 -9 14 -15 11 -15 -7z"/>
<path d="M2808 3023 c6 -2 18 -2 25 0 6 3 1 5 -13 5 -14 0 -19 -2 -12 -5z"/>
<path d="M2908 2656 c-6 -14 -15 -26 -20 -26 -10 0 -11 -34 -1 -43 4 -4 13 7
20 24 7 17 17 28 23 24 5 -3 10 3 10 14 0 31 -19 35 -32 7z"/>
<path d="M2967 2593 c-4 -3 -7 -11 -7 -17 0 -6 5 -5 12 2 6 6 9 14 7 17 -3 3
-9 2 -12 -2z"/>
<path d="M2890 2531 c0 -11 -4 -23 -10 -26 -5 -3 -10 -15 -10 -26 0 -10 5 -19
10 -19 6 0 10 6 10 14 0 8 7 22 16 31 9 8 13 22 10 30 -8 22 -26 18 -26 -4z"/>
<path d="M2851 2504 c0 -11 3 -14 6 -6 3 7 2 16 -1 19 -3 4 -6 -2 -5 -13z"/>
<path d="M2890 2391 c0 -30 5 -53 14 -61 13 -10 13 -7 3 19 -9 25 -8 33 5 48
17 20 13 43 -8 43 -10 0 -14 -13 -14 -49z"/>
<path d="M2933 2282 c1 -15 13 -38 26 -52 22 -23 23 -24 12 -2 -6 12 -10 34
-9 48 2 19 -2 28 -14 29 -13 2 -17 -3 -15 -23z"/>
<path d="M3566 4193 c-3 -21 -26 -337 -51 -703 -26 -366 -48 -675 -51 -687 -4
-23 -5 -22 -32 7 -15 16 -39 32 -54 36 -39 9 -35 -10 4 -21 17 -6 36 -19 42
-30 6 -11 17 -25 25 -31 11 -9 13 -26 7 -80 -4 -38 -9 -95 -11 -126 -2 -31
-10 -67 -17 -79 -9 -15 -10 -23 -2 -26 13 -4 14 6 -27 -556 -16 -225 -29 -426
-29 -448 l0 -39 84 0 83 0 6 83 c4 45 14 231 22 412 18 371 19 377 40 369 8
-4 15 -2 15 3 0 5 36 10 80 12 l80 2 0 -38 c0 -21 9 -198 20 -393 11 -195 20
-376 20 -402 l0 -48 90 0 91 0 -6 58 c-8 79 -195 2702 -195 2735 l0 27 -114 0
-114 0 -6 -37z m142 -433 c10 -141 60 -1305 56 -1310 -3 -3 -42 -5 -86 -5
l-81 0 7 180 c9 249 44 981 52 1088 6 83 8 88 28 85 16 -2 22 -11 24 -38z"/>
<path d="M2540 3001 c-16 -31 -13 -111 4 -111 22 0 30 19 16 35 -8 10 -10 30
-6 55 7 44 2 51 -14 21z"/>
<path d="M2340 2873 c0 -5 4 -14 9 -22 8 -12 12 -12 25 -2 23 19 20 31 -9 31
-14 0 -25 -3 -25 -7z"/>
<path d="M3288 2873 c6 -2 18 -2 25 0 6 3 1 5 -13 5 -14 0 -19 -2 -12 -5z"/>
<path d="M3199 2854 c-17 -9 -19 -13 -7 -14 9 0 23 -3 31 -6 8 -3 17 1 20 10
8 21 -15 26 -44 10z"/>
<path d="M2526 2828 c-6 -20 -4 -32 8 -43 9 -9 16 -21 16 -26 0 -15 20 -10 27
7 3 9 -3 21 -15 30 -11 8 -22 24 -25 37 -3 21 -4 20 -11 -5z"/>
<path d="M2387 2793 c-9 -9 -9 -43 1 -43 18 1 34 19 29 34 -7 17 -19 21 -30 9z"/>
<path d="M2512 2745 c0 -16 2 -22 5 -12 2 9 2 23 0 30 -3 6 -5 -1 -5 -18z"/>
<path d="M2358 2641 l-3 -49 22 23 c20 19 21 25 10 48 -18 39 -25 33 -29 -22z"/>
<path d="M2337 2563 c-12 -19 -25 -83 -18 -88 4 -2 18 3 31 12 20 14 21 17 5
25 -12 7 -15 17 -11 34 6 23 2 32 -7 17z"/>
<path d="M2410 2549 c0 -5 5 -7 10 -4 6 3 10 8 10 11 0 2 -4 4 -10 4 -5 0 -10
-5 -10 -11z"/>
<path d="M3270 2531 c0 -6 5 -13 10 -16 6 -4 8 -11 4 -16 -7 -13 14 -39 33
-39 11 0 11 4 3 21 -7 11 -9 23 -6 26 8 9 -14 33 -30 33 -8 0 -14 -4 -14 -9z"/>
<path d="M2297 2437 c-4 -10 -7 -29 -7 -42 0 -20 3 -23 21 -17 18 7 30 26 12
20 -4 -2 -10 11 -13 27 -5 25 -7 27 -13 12z"/>
<path d="M2390 2440 c0 -5 5 -10 11 -10 5 0 7 5 4 10 -3 6 -8 10 -11 10 -2 0
-4 -4 -4 -10z"/>
<path d="M3343 2437 c4 -10 7 -23 7 -28 0 -5 5 -9 10 -9 16 0 12 26 -7 41 -15
12 -16 12 -10 -4z"/>
<path d="M2360 2350 c0 -5 5 -10 10 -10 6 0 10 5 10 10 0 6 -4 10 -10 10 -5 0
-10 -4 -10 -10z"/>
<path d="M3338 2344 c-13 -13 -14 -21 -5 -35 9 -14 9 -26 0 -49 -13 -34 -11
-37 11 -14 9 8 16 32 16 53 0 20 5 42 12 49 9 9 9 12 -3 12 -8 0 -22 -7 -31
-16z"/>
<path d="M2391 2304 c0 -11 3 -14 6 -6 3 7 2 16 -1 19 -3 4 -6 -2 -5 -13z"/>
<path d="M2257 2283 c-8 -41 -1 -138 12 -159 9 -16 10 -16 11 -3 0 9 7 22 15
29 21 17 19 30 -4 30 -13 0 -20 9 -24 33 -5 39 0 57 18 57 13 0 31 18 24 24
-2 2 -14 6 -25 10 -18 5 -23 2 -27 -21z"/>
<path d="M3245 2300 c-3 -5 -1 -10 4 -10 6 0 11 5 11 10 0 6 -2 10 -4 10 -3 0
-8 -4 -11 -10z"/>
<path d="M2355 2150 c-3 -5 -2 -10 4 -10 5 0 13 5 16 10 3 6 2 10 -4 10 -5 0
-13 -4 -16 -10z"/>
<path d="M2290 2072 c0 -12 28 -48 33 -42 2 3 8 15 11 28 6 19 4 22 -18 22
-14 0 -26 -4 -26 -8z"/>
<path d="M2420 2059 c0 -5 5 -7 10 -4 6 3 10 8 10 11 0 2 -4 4 -10 4 -5 0 -10
-5 -10 -11z"/>
<path d="M2525 2030 c-3 -5 -1 -10 4 -10 6 0 11 5 11 10 0 6 -2 10 -4 10 -3 0
-8 -4 -11 -10z"/>
<path d="M2355 2001 c-19 -8 -19 -8 3 -20 12 -6 22 -10 22 -7 0 2 3 11 6 20 7
17 0 19 -31 7z"/>
<path d="M2447 1953 c-13 -12 -7 -20 15 -19 27 1 37 26 11 26 -11 0 -23 -3
-26 -7z"/>
<path d="M2503 1923 c9 -2 23 -2 30 0 6 3 -1 5 -18 5 -16 0 -22 -2 -12 -5z"/>
</g>
</svg>
